<svg width="65" height="60" viewBox="0 0 65 60" fill="none" xmlns="http://www.w3.org/2000/svg">
<path d="M29.7917 10H10.8334C9.39676 10 8.01901 10.5268 7.00319 11.4645C5.98737 12.4021 5.41669 13.6739 5.41669 15V50C5.41669 51.3261 5.98737 52.5979 7.00319 53.5355C8.01901 54.4732 9.39676 55 10.8334 55H48.75C50.1866 55 51.5644 54.4732 52.5802 53.5355C53.596 52.5979 54.1667 51.3261 54.1667 50V32.5" stroke="#0FBFCC" stroke-width="6" stroke-linecap="round" stroke-linejoin="round"/>
<path d="M50.1042 6.24996C51.1816 5.25539 52.643 4.69666 54.1667 4.69666C55.6904 4.69666 57.1517 5.25539 58.2292 6.24996C59.3066 7.24452 59.9119 8.59343 59.9119 9.99996C59.9119 11.4065 59.3066 12.7554 58.2292 13.75L32.5 37.5L21.6667 40L24.375 30L50.1042 6.24996Z" fill="black" stroke="black" stroke-linecap="round" stroke-linejoin="round"/>
<rect x="0.5" y="0.5" width="64" height="59" stroke="white"/>
</svg>
