<svg width="72" height="71" viewBox="0 0 72 71" fill="none" xmlns="http://www.w3.org/2000/svg">
<path d="M47.5 23.6667C47.5 29.9219 42.3605 35 36 35C29.6395 35 24.5 29.9219 24.5 23.6667C24.5 17.4115 29.6395 12.3333 36 12.3333C42.3605 12.3333 47.5 17.4115 47.5 23.6667ZM12.5 53.25C12.5 51.469 13.4007 49.8703 14.9601 48.451C16.5227 47.0289 18.7107 45.8229 21.18 44.8474C26.119 42.8963 32.0566 41.9167 36 41.9167C39.9434 41.9167 45.881 42.8963 50.82 44.8474C53.2893 45.8229 55.4773 47.0289 57.0399 48.451C58.5993 49.8703 59.5 51.469 59.5 53.25V58.6667H12.5V53.25Z" fill="black" stroke="#0FBFCC"/>
</svg>
